<svg id="Layer_1" data-name="Layer 1" xmlns="http://www.w3.org/2000/svg" viewBox="0 0 490.62 249.32"><defs><style>.cls-1{isolation:isolate;}.cls-2{fill:#ab6055;}.cls-3{fill:#d89d94;}</style></defs><g class="cls-1"><g class="cls-1"><path class="cls-2" d="M474.24,214.29H546.4c-25.27,8.5-33.15,25.13-37.65,72.9-3.2,34.06-18.82,42.81-18.82,42.81-11.7,0-23.2-49.35-33.14-101.48C461.09,220.24,466.56,215.57,474.24,214.29Z" transform="translate(-55.78 -80.68)"/><path class="cls-2" d="M489.93,330H417.77c12.84,0,21.71-24.51,26.86-55.5,3.49-20.88,7-36.07,12.16-46C466.73,280.65,478.23,330,489.93,330Z" transform="translate(-55.78 -80.68)"/><path class="cls-3" d="M456.79,228.52c-5.19,9.91-8.67,25.1-12.16,46-5.15,31-14,55.5-26.86,55.5-13.94-3.09-24.62-55.39-39.35-134.89-.45-2.46-.91-4.93-1.39-7.39,10.94-57.6,22.53-107,34.2-107H415c13.91,3.06,24.59,55.39,39.32,134.86C455.14,219.87,456,224.21,456.79,228.52Z" transform="translate(-55.78 -80.68)"/><path class="cls-3" d="M342.84,80.68h68.39c-11.67,0-23.26,49.44-34.2,107C366.86,133.6,355,80.68,342.84,80.68Z" transform="translate(-55.78 -80.68)"/><path class="cls-2" d="M377,187.72c-1.07,5.81-2.18,11.7-3.26,17.62-16.4,89.56-26.2,122.17-37.45,124.66-12.69,0-25.13-57.85-35.61-114.46l-.51-2.72c.48-2.49.93-5,1.38-7.51C318,115.78,327.79,83.15,339,80.68h3.8C355,80.68,366.86,133.6,377,187.72Z" transform="translate(-55.78 -80.68)"/><path class="cls-2" d="M336.32,330H264.13c12.35,0,24.62-55.36,36.07-117.18l.51,2.72C311.19,272.15,323.63,330,336.32,330Z" transform="translate(-55.78 -80.68)"/><path class="cls-3" d="M300.2,212.82C288.75,274.64,276.48,330,264.13,330c-13.91-3.09-24.62-55.39-39.32-134.89-.46-2.49-.94-5-1.39-7.45,10.93-57.57,22.52-107,34.17-107h3.79C275.12,83.71,285.75,134.88,300.2,212.82Z" transform="translate(-55.78 -80.68)"/><path class="cls-3" d="M189.22,80.68h68.37c-11.65,0-23.24,49.41-34.17,107C213.22,133.58,201.32,80.68,189.22,80.68Z" transform="translate(-55.78 -80.68)"/><path class="cls-2" d="M223.42,187.66c-1.11,5.81-2.21,11.73-3.29,17.68C203.73,294.9,193.92,327.51,182.68,330c-12.7,0-7.77-2.38-15.76-38-8.07-36-14.28-57.32-22.41-68.28,1.16-6.07,2.33-12.24,3.46-18.45,16.4-89.53,26.21-122.16,37.45-124.63h3.8C201.32,80.68,213.22,133.58,223.42,187.66Z" transform="translate(-55.78 -80.68)"/><path class="cls-2" d="M182.68,330H110.49c11.61,0,23.17-49,34-106.24,8.13,11,14.34,32.32,22.41,68.28C174.91,327.62,170,330,182.68,330Z" transform="translate(-55.78 -80.68)"/><path class="cls-3" d="M144.51,223.76C133.66,281,122.1,330,110.49,330c-1.36-1.67-9.38,0-16.75-44.25-6.77-40.8-18.61-66.27-38-71.46H128C134.6,214.58,139.87,217.47,144.51,223.76Z" transform="translate(-55.78 -80.68)"/></g></g></svg>